<?xml version="1.0" encoding="UTF-8"?>
<svg version="1.1" xmlns="http://www.w3.org/2000/svg" width="137" height="163">
<path d="M0 0 C0.99 0 1.98 0 3 0 C3 1.65 3 3.3 3 5 C10.06580552 5.0506353 17.1315644 5.0857062 24.19750977 5.10986328 C26.60214995 5.11993201 29.00677786 5.13358785 31.41137695 5.15087891 C34.86412584 5.17508874 38.3167131 5.18647432 41.76953125 5.1953125 C43.38683891 5.21079636 43.38683891 5.21079636 45.03681946 5.22659302 C46.03763046 5.22674408 47.03844147 5.22689514 48.06958008 5.22705078 C48.95116287 5.231492 49.83274567 5.23593323 50.74104309 5.24050903 C53.28251649 5.14640061 53.28251649 5.14640061 56 3 C57.68549068 3.61753008 59.35104541 4.29065455 61 5 C63.52335148 5.24891553 63.52335148 5.24891553 66.1574707 5.13525391 C67.15813065 5.11508209 68.15879059 5.09491028 69.18977356 5.0741272 C70.2576561 5.04193085 71.32553864 5.0097345 72.42578125 4.9765625 C73.52850876 4.95153656 74.63123627 4.92651062 75.76737976 4.90072632 C79.28273975 4.81868231 82.79752488 4.72203109 86.3125 4.625 C88.69854437 4.56674459 91.08461221 4.50944166 93.47070312 4.453125 C99.3141191 4.31312663 105.15713087 4.16113973 111 4 C112.0625 5.875 112.0625 5.875 113 8 C112.67 8.66 112.34 9.32 112 10 C93.85 10 75.7 10 57 10 C57.33 26.17 57.66 42.34 58 59 C75.49 59 92.98 59 111 59 C111.99 60.98 111.99 60.98 113 63 C109.55071641 63.78073228 106.37625112 64.12247152 102.8425293 64.11352539 C101.84186935 64.11344986 100.84120941 64.11337433 99.81022644 64.11329651 C98.7423439 64.10813522 97.67446136 64.10297394 96.57421875 64.09765625 C95.47149124 64.0962413 94.36876373 64.09482635 93.23262024 64.09336853 C89.71755233 64.08778004 86.20254859 64.07522959 82.6875 64.0625 C80.30143321 64.05748352 77.91536543 64.05292087 75.52929688 64.04882812 C69.68615343 64.03866614 63.84314837 64.01908832 58 64 C57.67 73.24 57.34 82.48 57 92 C55.515 91.505 55.515 91.505 54 91 C53.67 82.09 53.34 73.18 53 64 C50.050625 64.020625 47.10125 64.04125 44.0625 64.0625 C31.69331369 64.10341792 19.3534028 63.57808083 7 63 C7.01047363 63.95890137 7.02094727 64.91780273 7.03173828 65.90576172 C7.06789328 69.45780719 7.09088393 73.00983634 7.10986328 76.56201172 C7.11993118 78.10045098 7.13358646 79.63887107 7.15087891 81.17724609 C7.17509317 83.38644133 7.18647491 85.59538395 7.1953125 87.8046875 C7.20563507 88.49432587 7.21595764 89.18396423 7.22659302 89.89450073 C7.22699478 91.59800906 7.12191026 93.30085943 7 95 C6.01 95.99 6.01 95.99 5 97 C4.01 97 3.02 97 2 97 C0.51320275 94.02640551 0.88887395 91.33700821 0.90234375 88.0234375 C0.9037587 87.33819 0.90517365 86.6529425 0.90663147 85.94692993 C0.91223325 83.75624239 0.92478594 81.5656567 0.9375 79.375 C0.94251478 77.89062648 0.94707772 76.40625135 0.95117188 74.921875 C0.96220323 71.28121685 0.97946901 67.64061836 1 64 C-0.10472656 64.0103125 -1.20945312 64.020625 -2.34765625 64.03125 C-5.21726975 64.00669716 -7.3113584 63.86036531 -10 63 C-10 62.01 -10 61.02 -10 60 C-6.7 60 -3.4 60 0 60 C0 58.35 0 56.7 0 55 C1.485 54.505 1.485 54.505 3 54 C3.66 56.31 4.32 58.62 5 61 C5.99 60.505 5.99 60.505 7 60 C9.68759403 59.85503768 12.35332868 59.76573944 15.04296875 59.71875 C15.8447908 59.70034058 16.64661285 59.68193115 17.47273254 59.66296387 C20.04424612 59.60414395 22.61582846 59.55141901 25.1875 59.5 C27.74131195 59.44840784 30.29504086 59.39533108 32.84870911 59.33703613 C34.43805021 59.30076208 36.02748313 59.26824829 37.61698914 59.2401123 C42.15992012 59.13661235 46.51410748 58.73214864 51 58 C51 58.66 51 59.32 51 60 C51.66 59.67 52.32 59.34 53 59 C53 42.83 53 26.66 53 10 C37.82 10 22.64 10 7 10 C10.3 10.99 13.6 11.98 17 13 C18 14 18 14 18.0625 17.5625 C18.041875 18.696875 18.02125 19.83125 18 21 C17.34 21.33 16.68 21.66 16 22 C14.948125 21.649375 13.89625 21.29875 12.8125 20.9375 C8.30440095 19.82895105 6.3822492 20.66304262 2 22 C-1.3409872 22.1763571 -4.65759504 22.1210529 -8 22 C-8.58984375 20.109375 -8.58984375 20.109375 -9 18 C-7.5625 16.25 -7.5625 16.25 -6 15 C-6.99 14.34 -7.98 13.68 -9 13 C-8.67 11.02 -8.34 9.04 -8 7 C-5.69 7.33 -3.38 7.66 -1 8 C-0.67 5.36 -0.34 2.72 0 0 Z " fill="#D5D2D5" transform="translate(10,46)"/>
<path d="M0 0 C0.33 0 0.66 0 1 0 C2.64237451 4.35085177 3.28633045 8.07000636 3.4140625 12.7109375 C3.46747803 14.39388916 3.46747803 14.39388916 3.52197266 16.11083984 C3.55597168 17.5180127 3.5899707 18.92518555 3.625 20.375 C3.74875 24.87125 3.8725 29.3675 4 34 C21.49 34 38.98 34 57 34 C57.99 35.98 57.99 35.98 59 38 C55.55071641 38.78073228 52.37625112 39.12247152 48.8425293 39.11352539 C47.84186935 39.11344986 46.84120941 39.11337433 45.81022644 39.11329651 C44.7423439 39.10813522 43.67446136 39.10297394 42.57421875 39.09765625 C41.47149124 39.0962413 40.36876373 39.09482635 39.23262024 39.09336853 C35.71755233 39.08778004 32.20254859 39.07522959 28.6875 39.0625 C26.30143321 39.05748352 23.91536543 39.05292087 21.52929688 39.04882812 C15.68615343 39.03866614 9.84314837 39.01908832 4 39 C3.67 48.24 3.34 57.48 3 67 C1.515 66.505 1.515 66.505 0 66 C-0.33 57.09 -0.66 48.18 -1 39 C-3.949375 39.020625 -6.89875 39.04125 -9.9375 39.0625 C-22.30668631 39.10341792 -34.6465972 38.57808083 -47 38 C-46.98952637 38.95890137 -46.97905273 39.91780273 -46.96826172 40.90576172 C-46.93210672 44.45780719 -46.90911607 48.00983634 -46.89013672 51.56201172 C-46.88006882 53.10045098 -46.86641354 54.63887107 -46.84912109 56.17724609 C-46.82490683 58.38644133 -46.81352509 60.59538395 -46.8046875 62.8046875 C-46.79436493 63.49432587 -46.78404236 64.18396423 -46.77340698 64.89450073 C-46.77300522 66.59800906 -46.87808974 68.30085943 -47 70 C-47.99 70.99 -47.99 70.99 -49 72 C-49.99 72 -50.98 72 -52 72 C-53.48679725 69.02640551 -53.11112605 66.33700821 -53.09765625 63.0234375 C-53.0962413 62.33819 -53.09482635 61.6529425 -53.09336853 60.94692993 C-53.08776675 58.75624239 -53.07521406 56.5656567 -53.0625 54.375 C-53.05748522 52.89062648 -53.05292228 51.40625135 -53.04882812 49.921875 C-53.03779677 46.28121685 -53.02053099 42.64061836 -53 39 C-54.65708984 39.01546875 -54.65708984 39.01546875 -56.34765625 39.03125 C-59.21726975 39.00669716 -61.3113584 38.86036531 -64 38 C-64 37.01 -64 36.02 -64 35 C-60.7 35 -57.4 35 -54 35 C-54 33.35 -54 31.7 -54 30 C-53.01 29.67 -52.02 29.34 -51 29 C-50.34 31.31 -49.68 33.62 -49 36 C-48.01 35.505 -48.01 35.505 -47 35 C-44.31240597 34.85503768 -41.64667132 34.76573944 -38.95703125 34.71875 C-38.1552092 34.70034058 -37.35338715 34.68193115 -36.52726746 34.66296387 C-33.95575388 34.60414395 -31.38417154 34.55141901 -28.8125 34.5 C-26.25868805 34.44840784 -23.70495914 34.39533108 -21.15129089 34.33703613 C-19.56194979 34.30076208 -17.97251687 34.26824829 -16.38301086 34.2401123 C-11.84007988 34.13661235 -7.48589252 33.73214864 -3 33 C-3 33.66 -3 34.32 -3 35 C-2.34 34.67 -1.68 34.34 -1 34 C-0.67 22.78 -0.34 11.56 0 0 Z " fill="#576A73" transform="translate(64,71)"/>
<path d="M0 0 C1.46373047 0.16628906 1.46373047 0.16628906 2.95703125 0.3359375 C3.69308594 0.43132812 4.42914062 0.52671875 5.1875 0.625 C5.8475 2.605 6.5075 4.585 7.1875 6.625 C3.7522952 8.91513653 2.202169 8.80342973 -1.8125 8.625 C-0.678125 8.769375 0.45625 8.91375 1.625 9.0625 C5.1875 9.625 5.1875 9.625 6.1875 10.625 C6.2864294 12.78980797 6.317211 14.95793785 6.3125 17.125 C6.31636719 18.90390625 6.31636719 18.90390625 6.3203125 20.71875 C6.1875 23.625 6.1875 23.625 5.1875 24.625 C-1.02300074 25.75418195 -6.57456768 25.45587213 -12.8125 24.625 C-14.65276883 19.98524885 -14.99220085 16.40269416 -14.625 11.4375 C-14.54894531 10.22707031 -14.47289062 9.01664063 -14.39453125 7.76953125 C-13.8125 4.625 -13.8125 4.625 -12.57421875 2.82421875 C-8.312209 -0.07697192 -5.08714491 -0.61290903 0 0 Z M-1.8125 15.625 C2.1875 16.625 2.1875 16.625 2.1875 16.625 Z " fill="#2F84E1" transform="translate(14.8125,72.375)"/>
<path d="M0 0 C1.65 0 3.3 0 5 0 C5.0611626 9.04526963 4.91714007 18.07567399 4.62768555 27.11547852 C4.56137207 29.22335289 4.50232866 31.33136193 4.44335938 33.43945312 C4.40148133 34.78647207 4.3591802 36.13347795 4.31640625 37.48046875 C4.27974854 38.68598389 4.24309082 39.89149902 4.20532227 41.13354492 C4 44 4 44 3 46 C-8.01438941 46.77932001 -8.01438941 46.77932001 -11.6875 43.875 C-14.53503331 37.63754607 -14.19066118 32.40544206 -12 26 C-10 24 -10 24 1 23 C0.67 15.41 0.34 7.82 0 0 Z M-6 31 C-6 33.64 -6 36.28 -6 39 C-5.67 39 -5.34 39 -5 39 C-5 36.36 -5 33.72 -5 31 C-5.33 31 -5.66 31 -6 31 Z " fill="#2D2D2D" transform="translate(63,0)"/>
<path d="M0 0 C0.33 0 0.66 0 1 0 C2.64237451 4.35085177 3.28633045 8.07000636 3.4140625 12.7109375 C3.44967285 13.83290527 3.4852832 14.95487305 3.52197266 16.11083984 C3.55597168 17.5180127 3.5899707 18.92518555 3.625 20.375 C3.74875 24.87125 3.8725 29.3675 4 34 C21.49 34 38.98 34 57 34 C57.99 35.98 57.99 35.98 59 38 C55.55071641 38.78073228 52.37625112 39.12247152 48.8425293 39.11352539 C47.84186935 39.11344986 46.84120941 39.11337433 45.81022644 39.11329651 C44.7423439 39.10813522 43.67446136 39.10297394 42.57421875 39.09765625 C41.47149124 39.0962413 40.36876373 39.09482635 39.23262024 39.09336853 C35.71755233 39.08778004 32.20254859 39.07522959 28.6875 39.0625 C26.30143321 39.05748352 23.91536543 39.05292087 21.52929688 39.04882812 C15.68615343 39.03866614 9.84314837 39.01908832 4 39 C3.67 48.24 3.34 57.48 3 67 C2.01 66.67 1.02 66.34 0 66 C-0.33 57.09 -0.66 48.18 -1 39 C-4.465 37.515 -4.465 37.515 -8 36 C-8 35.67 -8 35.34 -8 35 C-4.535 34.505 -4.535 34.505 -1 34 C-0.67 22.78 -0.34 11.56 0 0 Z " fill="#706F6F" transform="translate(64,71)"/>
<path d="M0 0 C1.32 0 2.64 0 4 0 C8.55067664 9.10135329 5.97956438 23.89645749 5.6875 33.8125 C5.67044006 34.4890564 5.65338013 35.16561279 5.63580322 35.8626709 C5.58428645 37.81110263 5.51703125 39.75909859 5.44921875 41.70703125 C5.41143311 42.8463208 5.37364746 43.98561035 5.3347168 45.15942383 C5 48 5 48 3 51 C1.68 50.67 0.36 50.34 -1 50 C-1.98499791 40.76096896 -2.1862691 31.58596248 -2.18530273 22.3059082 C-2.18752538 19.9101474 -2.20585696 17.51482259 -2.22460938 15.11914062 C-2.22753778 13.58854322 -2.22952627 12.05794366 -2.23046875 10.52734375 C-2.24124702 9.4586631 -2.24124702 9.4586631 -2.25224304 8.36839294 C-2.23510936 4.68302423 -2.10218849 3.15328274 0 0 Z " fill="#485D64" transform="translate(127,92)"/>
<path d="M0 0 C1.2065625 0.0309375 1.2065625 0.0309375 2.4375 0.0625 C2.77442785 1.66591555 3.10691093 3.27026555 3.4375 4.875 C3.623125 5.76832031 3.80875 6.66164063 4 7.58203125 C4.4375 10.0625 4.4375 10.0625 4.4375 13.0625 C5.7575 12.7325 7.0775 12.4025 8.4375 12.0625 C8.4375 12.7225 8.4375 13.3825 8.4375 14.0625 C7.1175 14.3925 5.7975 14.7225 4.4375 15.0625 C4.41768066 15.89499268 4.39786133 16.72748535 4.37744141 17.58520508 C4.29929258 20.677265 4.21259794 23.76893383 4.12011719 26.8605957 C4.06305908 28.8554536 4.01585558 30.8505854 3.96875 32.84570312 C3.91074219 34.72612305 3.91074219 34.72612305 3.8515625 36.64453125 C3.8201416 37.80186768 3.7887207 38.9592041 3.75634766 40.15161133 C3.4375 43.0625 3.4375 43.0625 1.4375 46.0625 C0.1175 46.0625 -1.2025 46.0625 -2.5625 46.0625 C-4.76785016 41.65179969 -3.97450772 35.75070725 -4.12011719 30.84399414 C-4.18630033 28.66450657 -4.26448495 26.48568643 -4.34375 24.30664062 C-4.86339286 8.64718721 -4.86339286 8.64718721 -3.5625 1.0625 C-2.5625 0.0625 -2.5625 0.0625 0 0 Z " fill="#61737B" transform="translate(128.5625,40.9375)"/>
<path d="M0 0 C2.10353495 -0.0810206 4.20795952 -0.13919907 6.3125 -0.1875 C7.48425781 -0.22230469 8.65601563 -0.25710937 9.86328125 -0.29296875 C13 0 13 0 14.875 1.25 C16.21239821 3.33039721 16.49161434 4.72804675 16.6875 7.1875 C16.75195312 7.97382813 16.81640625 8.76015625 16.8828125 9.5703125 C17.0509196 13.05573308 17.06343719 16.51095436 17 20 C14.6875 21.125 14.6875 21.125 12 22 C11.01 21.34 10.02 20.68 9 20 C8.70703125 16.9609375 8.70703125 16.9609375 8.8125 13.375 C8.83957031 12.18648437 8.86664063 10.99796875 8.89453125 9.7734375 C8.92933594 8.85820313 8.96414062 7.94296875 9 7 C8.34 7 7.68 7 7 7 C7 11.62 7 16.24 7 21 C2 22 2 22 -1 20 C-1.35644531 18.15234375 -1.35644531 18.15234375 -1.328125 15.9375 C-1.32296875 15.14085937 -1.3178125 14.34421875 -1.3125 13.5234375 C-1.291875 12.69070312 -1.27125 11.85796875 -1.25 11 C-1.24484375 10.16726562 -1.2396875 9.33453125 -1.234375 8.4765625 C-1.15453696 2.30907392 -1.15453696 2.30907392 0 0 Z " fill="#353435" transform="translate(30,24)"/>
<path d="M0 0 C1.05832031 -0.03738281 2.11664063 -0.07476563 3.20703125 -0.11328125 C6.1875 0.3125 6.1875 0.3125 8.55859375 1.78515625 C10.95523523 5.50368632 10.62382848 8.74111263 10.4375 13.0625 C10.41945313 13.85527344 10.40140625 14.64804687 10.3828125 15.46484375 C10.33583082 17.41458348 10.26409044 19.36369878 10.1875 21.3125 C5.4375 22.4375 5.4375 22.4375 3.1875 21.3125 C3.1875 16.6925 3.1875 12.0725 3.1875 7.3125 C2.5275 7.3125 1.8675 7.3125 1.1875 7.3125 C1.1875 11.6025 1.1875 15.8925 1.1875 20.3125 C-2.8125 22.3125 -2.8125 22.3125 -5.0625 21.9375 C-5.92875 21.628125 -5.92875 21.628125 -6.8125 21.3125 C-6.84138146 18.00001813 -6.85925799 14.68756833 -6.875 11.375 C-6.88337891 10.42947266 -6.89175781 9.48394531 -6.90039062 8.50976562 C-6.90361328 7.61064453 -6.90683594 6.71152344 -6.91015625 5.78515625 C-6.91539307 4.95250244 -6.92062988 4.11984863 -6.92602539 3.26196289 C-6.68412519 -0.89195776 -3.4842562 0.08004942 0 0 Z " fill="#353536" transform="translate(75.8125,23.6875)"/>
<path d="M0 0 C1.43158447 -0.00945648 1.43158447 -0.00945648 2.89208984 -0.019104 C3.92543457 -0.01505554 4.9587793 -0.01100708 6.0234375 -0.00683594 C7.08127441 -0.00874939 8.13911133 -0.01066284 9.22900391 -0.01263428 C11.46842689 -0.01399696 13.70785776 -0.01029476 15.94726562 -0.00195312 C19.38429427 0.00874504 22.8208002 -0.00184581 26.2578125 -0.01464844 C28.42968866 -0.01332686 30.60156449 -0.0107645 32.7734375 -0.00683594 C33.80678223 -0.0108844 34.84012695 -0.01493286 35.90478516 -0.019104 C36.8591748 -0.01279968 37.81356445 -0.00649536 38.796875 0 C39.63911621 0.00159119 40.48135742 0.00318237 41.34912109 0.00482178 C43.3984375 0.25878906 43.3984375 0.25878906 45.3984375 2.25878906 C45.0234375 4.88378906 45.0234375 4.88378906 44.3984375 7.25878906 C40.04213299 8.33294634 35.79537149 8.41164498 31.3359375 8.38378906 C30.20321411 8.38088867 30.20321411 8.38088867 29.04760742 8.37792969 C23.7922624 8.33772303 18.61892532 8.01226146 13.390625 7.46191406 C8.69926442 7.1434405 4.0226537 7.43999392 -0.66796875 7.71191406 C-3.6015625 7.25878906 -3.6015625 7.25878906 -5.50390625 4.74316406 C-5.86613281 3.92332031 -6.22835938 3.10347656 -6.6015625 2.25878906 C-4.12591215 -0.21686129 -3.40850517 0.00643945 0 0 Z " fill="#345059" transform="translate(24.6015625,138.7412109375)"/>
<path d="M0 0 C0.66 0 1.32 0 2 0 C2.36279456 1.28926992 2.71496698 2.58153272 3.0625 3.875 C3.25972656 4.59429687 3.45695313 5.31359375 3.66015625 6.0546875 C4 8 4 8 3 10 C4.2065625 10.1546875 4.2065625 10.1546875 5.4375 10.3125 C9.78247386 11.15100373 13.83457527 12.52821659 18 14 C18 16.31 18 18.62 18 21 C17.34 21.33 16.68 21.66 16 22 C14.948125 21.649375 13.89625 21.29875 12.8125 20.9375 C8.30440095 19.82895105 6.3822492 20.66304262 2 22 C-1.3409872 22.1763571 -4.65759504 22.1210529 -8 22 C-8.58984375 20.109375 -8.58984375 20.109375 -9 18 C-7.5625 16.25 -7.5625 16.25 -6 15 C-6.99 14.34 -7.98 13.68 -9 13 C-8.67 11.02 -8.34 9.04 -8 7 C-5.69 7.33 -3.38 7.66 -1 8 C-0.67 5.36 -0.34 2.72 0 0 Z " fill="#0672F0" transform="translate(10,46)"/>
<path d="M0 0 C0.22134176 2.12368444 0.42670007 4.24904024 0.625 6.375 C0.79902344 8.15003906 0.79902344 8.15003906 0.9765625 9.9609375 C0.98429687 10.96382812 0.99203125 11.96671875 1 13 C0.34 13.66 -0.32 14.32 -1 15 C-0.34 16.32 0.32 17.64 1 19 C-2.15481114 21.39000844 -3.60043633 22.02066709 -7.625 21.8125 C-11 21 -11 21 -14 19 C-16.47607274 13.55263997 -15.80987999 9.90206995 -14.25 4.3125 C-10.86466728 -1.95036554 -6.12817392 -1.1425409 0 0 Z M-7 6 C-6.67 6.99 -6.34 7.98 -6 9 C-6 8.01 -6 7.02 -6 6 C-6.33 6 -6.66 6 -7 6 Z " fill="#2A2A2A" transform="translate(121,24)"/>
<path d="M0 0 C1.21236328 0.01353516 1.21236328 0.01353516 2.44921875 0.02734375 C3.37154297 0.04474609 3.37154297 0.04474609 4.3125 0.0625 C4.6425 1.7125 4.9725 3.3625 5.3125 5.0625 C4.508125 5.289375 3.70375 5.51625 2.875 5.75 C2.029375 6.183125 1.18375 6.61625 0.3125 7.0625 C-0.58136164 9.61025306 -0.58136164 9.61025306 -0.6875 12.0625 C0.6325 12.3925 1.9525 12.7225 3.3125 13.0625 C3.3125 14.7125 3.3125 16.3625 3.3125 18.0625 C1.9925 18.3925 0.6725 18.7225 -0.6875 19.0625 C-0.3575 22.0325 -0.0275 25.0025 0.3125 28.0625 C-1.9975 28.7225 -4.3075 29.3825 -6.6875 30.0625 C-8.93717291 26.68799063 -8.93457022 25.53741257 -8.91796875 21.58984375 C-8.91603516 20.52572266 -8.91410156 19.46160156 -8.91210938 18.36523438 C-8.89986328 17.25470703 -8.88761719 16.14417969 -8.875 15 C-8.87435547 13.88560547 -8.87371094 12.77121094 -8.87304688 11.62304688 C-8.82785676 3.34321352 -8.82785676 3.34321352 -7.6875 1.0625 C-4.80538698 0.10179566 -2.98899956 -0.04331883 0 0 Z " fill="#404042" transform="translate(10.6875,15.9375)"/>
<path d="M0 0 C1.28154213 -0.00956978 1.28154213 -0.00956978 2.588974 -0.01933289 C3.51811111 -0.02044571 4.44724823 -0.02155853 5.40454102 -0.02270508 C6.35281265 -0.02603348 7.30108429 -0.02936188 8.27809143 -0.03279114 C10.28809116 -0.03786452 12.29809934 -0.04019934 14.30810547 -0.04003906 C17.39182346 -0.04222455 20.47518333 -0.06037316 23.55883789 -0.0793457 C25.50740437 -0.08227967 27.45597256 -0.08426444 29.40454102 -0.08520508 C30.79521034 -0.09598335 30.79521034 -0.09598335 32.213974 -0.10697937 C33.07148758 -0.10390274 33.92900116 -0.10082611 34.8125 -0.09765625 C35.56893295 -0.09908127 36.32536591 -0.10050629 37.10472107 -0.10197449 C38.97094727 0.14526367 38.97094727 0.14526367 40.97094727 2.14526367 C40.43523298 5.68097796 40.43523298 5.68097796 38.97094727 7.14526367 C36.64641524 7.25163526 34.35854601 7.28523843 32.03344727 7.27026367 C31.30649658 7.26833008 30.5795459 7.26639648 29.83056641 7.2644043 C18.53809303 7.1811077 7.25162231 6.63442684 -4.02905273 6.14526367 C-4.41124041 4.4891171 -4.74300375 2.82069343 -5.02905273 1.14526367 C-3.50173163 -0.38205743 -2.1290125 0.01073976 0 0 Z " fill="#5C7079" transform="translate(84.029052734375,140.854736328125)"/>
<path d="M0 0 C0.495 1.485 0.495 1.485 1 3 C0.67 3.66 0.34 4.32 0 5 C-18.15 5 -36.3 5 -55 5 C-55.33 5.66 -55.66 6.32 -56 7 C-55.42415568 4.61435923 -54.77772405 2.33317216 -54 0 C-46.79190195 -0.16814016 -39.58365527 -0.32804655 -32.37524414 -0.48217773 C-29.92207688 -0.53560984 -27.4689502 -0.59094012 -25.01586914 -0.64819336 C-21.49374139 -0.73007019 -17.97152499 -0.80516217 -14.44921875 -0.87890625 C-13.34913986 -0.90594131 -12.24906097 -0.93297638 -11.11564636 -0.96083069 C-10.09481461 -0.98092697 -9.07398285 -1.00102325 -8.0222168 -1.02172852 C-7.12286911 -1.04171402 -6.22352142 -1.06169952 -5.29692078 -1.08229065 C-3 -1 -3 -1 0 0 Z " fill="#C8C6C9" transform="translate(122,51)"/>
<path d="M0 0 C2.625 0.375 2.625 0.375 4.5 2.6875 C5.625 5.375 5.625 5.375 4.625 8.375 C4.54356145 10.00219482 4.5174698 11.63251719 4.52734375 13.26171875 C4.53056641 14.19951172 4.53378906 15.13730469 4.53710938 16.10351562 C4.54967773 17.56821289 4.54967773 17.56821289 4.5625 19.0625 C4.56701172 20.05056641 4.57152344 21.03863281 4.57617188 22.05664062 C4.58795697 24.49615474 4.60440989 26.93554689 4.625 29.375 C0.90772326 30.51083456 -0.84551709 30.04170026 -4.375 28.375 C-4.34470703 27.81514404 -4.31441406 27.25528809 -4.28320312 26.6784668 C-4.14630816 24.13985502 -4.01064062 21.60117909 -3.875 19.0625 C-3.82730469 18.18142578 -3.77960937 17.30035156 -3.73046875 16.39257812 C-3.68535156 15.54501953 -3.64023437 14.69746094 -3.59375 13.82421875 C-3.55185547 13.04393311 -3.50996094 12.26364746 -3.46679688 11.4597168 C-3.35341154 8.88472379 -3.37615715 6.32639963 -3.4375 3.75 C-3.3528179 0.53208036 -3.1617877 0.49922964 0 0 Z " fill="#2F2F2F" transform="translate(21.375,15.625)"/>
<path d="M0 0 C0.66 0.66 1.32 1.32 2 2 C1.625 4.125 1.625 4.125 1 6 C-0.32 6.33 -1.64 6.66 -3 7 C-3 9.31 -3 11.62 -3 14 C-1.02 14.99 0.96 15.98 3 17 C2.34 18.32 1.68 19.64 1 21 C-0.43655854 21.08131463 -1.8744483 21.13933559 -3.3125 21.1875 C-4.51326172 21.23970703 -4.51326172 21.23970703 -5.73828125 21.29296875 C-8 21 -8 21 -9.74609375 19.65625 C-12.35870107 16.20532943 -12.13802489 12.02924609 -11.875 7.875 C-11 4 -11 4 -8.8125 1.5 C-5.54950258 -0.24026529 -3.64651603 -0.48620214 0 0 Z " fill="#39393A" transform="translate(101,24)"/>
<path d="M0 0 C0.66 0 1.32 0 2 0 C2.07347656 1.04800781 2.07347656 1.04800781 2.1484375 2.1171875 C2.22320312 3.02726562 2.29796875 3.93734375 2.375 4.875 C2.44460937 5.77992187 2.51421875 6.68484375 2.5859375 7.6171875 C2.79568132 10.17941903 2.79568132 10.17941903 5 12 C5.10445364 14.51480632 5.08999705 16.90725468 4.9765625 19.4140625 C4.95153656 20.14370209 4.92651062 20.87334167 4.90072632 21.62509155 C4.81845785 23.95886232 4.72189707 26.29179522 4.625 28.625 C4.56676728 30.20569478 4.50946385 31.78642409 4.453125 33.3671875 C4.31286933 37.24527483 4.15979221 41.1226705 4 45 C2.35 44.67 0.7 44.34 -1 44 C-0.67 43.01 -0.34 42.02 0 41 C0.09501346 38.89751345 0.13072694 36.7921313 0.1328125 34.6875 C0.13410156 33.44742188 0.13539063 32.20734375 0.13671875 30.9296875 C0.13285156 29.63289063 0.12898437 28.33609375 0.125 27 C0.12886719 25.70320313 0.13273438 24.40640625 0.13671875 23.0703125 C0.13478516 21.21019531 0.13478516 21.21019531 0.1328125 19.3125 C0.13168457 18.17425781 0.13055664 17.03601563 0.12939453 15.86328125 C0.12726873 12.92667764 0.12726873 12.92667764 -1 10 C-1.13156527 6.31617231 -1.16982138 3.50946415 0 0 Z " fill="#37535C" transform="translate(128,95)"/>
<path d="M0 0 C1.65 0 3.3 0 5 0 C5.0611626 9.04526963 4.91714007 18.07567399 4.62768555 27.11547852 C4.56137207 29.22335289 4.50232866 31.33136193 4.44335938 33.43945312 C4.40148133 34.78647207 4.3591802 36.13347795 4.31640625 37.48046875 C4.27974854 38.68598389 4.24309082 39.89149902 4.20532227 41.13354492 C4 44 4 44 3 46 C1.35 46 -0.3 46 -2 46 C-2 45.34 -2 44.68 -2 44 C-1.34 44 -0.68 44 0 44 C0.05791844 40.87507749 0.09356746 37.75029234 0.125 34.625 C0.14175781 33.73554687 0.15851562 32.84609375 0.17578125 31.9296875 C0.18222656 31.07890625 0.18867187 30.228125 0.1953125 29.3515625 C0.20578613 28.56604004 0.21625977 27.78051758 0.22705078 26.97119141 C0.17990127 24.765535 0.17990127 24.765535 -2 23 C-1.01 23 -0.02 23 1 23 C0.67 15.41 0.34 7.82 0 0 Z " fill="#414243" transform="translate(63,0)"/>
<path d="M0 0 C1.65322266 0.01740234 1.65322266 0.01740234 3.33984375 0.03515625 C4.99693359 0.04869141 4.99693359 0.04869141 6.6875 0.0625 C7.54214844 0.07410156 8.39679688 0.08570312 9.27734375 0.09765625 C10.53167833 3.86065999 10.38429797 7.36976534 10.33984375 11.28515625 C10.33533203 12.03474609 10.33082031 12.78433594 10.32617188 13.55664062 C10.31440729 15.40368008 10.2964724 17.25067838 10.27734375 19.09765625 C9.94734375 19.09765625 9.61734375 19.09765625 9.27734375 19.09765625 C8.94734375 14.47765625 8.61734375 9.85765625 8.27734375 5.09765625 C5.61438335 5.09765625 4.43513714 5.51001152 2.27734375 7.09765625 C1.57062169 10.20696566 1.57062169 10.20696566 1.52734375 13.72265625 C1.470625 14.91117188 1.41390625 16.0996875 1.35546875 17.32421875 C1.3296875 18.23945312 1.30390625 19.1546875 1.27734375 20.09765625 C-0.37265625 20.42765625 -2.02265625 20.75765625 -3.72265625 21.09765625 C-3.75153771 17.78517438 -3.76941424 14.47272458 -3.78515625 11.16015625 C-3.79353516 10.21462891 -3.80191406 9.26910156 -3.81054688 8.29492188 C-3.81376953 7.39580078 -3.81699219 6.49667969 -3.8203125 5.5703125 C-3.82554932 4.73765869 -3.83078613 3.90500488 -3.83618164 3.04711914 C-3.6555465 -0.05475523 -3.13427484 0.11242019 0 0 Z " fill="#303030" transform="translate(72.72265625,23.90234375)"/>
<path d="M0 0 C2.12472576 -0.05386629 4.24983652 -0.09273071 6.375 -0.125 C7.55835938 -0.14820312 8.74171875 -0.17140625 9.9609375 -0.1953125 C13 0 13 0 15 2 C14.98251781 4.91952568 14.86055367 7.72297885 14.625 10.625 C14.56828125 11.42679688 14.5115625 12.22859375 14.453125 13.0546875 C14.31152018 15.03715498 14.15697741 17.01869051 14 19 C13.34 19 12.68 19 12 19 C11.97421875 18.01257813 11.9484375 17.02515625 11.921875 16.0078125 C11.86515625 14.72648437 11.8084375 13.44515625 11.75 12.125 C11.70359375 10.84882812 11.6571875 9.57265625 11.609375 8.2578125 C11.37444944 4.90811895 11.37444944 4.90811895 8.953125 3.5546875 C8.30859375 3.37164063 7.6640625 3.18859375 7 3 C6.855625 3.639375 6.71125 4.27875 6.5625 4.9375 C6 7 6 7 5 8 C4.76636119 9.84891946 4.58696365 11.70488031 4.4375 13.5625 C4.35371094 14.57441406 4.26992188 15.58632813 4.18359375 16.62890625 C4.12300781 17.41136719 4.06242187 18.19382812 4 19 C2.05078125 18.46875 2.05078125 18.46875 0 17 C-0.49743608 14.37112567 -0.74088451 12.14236448 -0.8125 9.5 C-0.85052734 8.81035156 -0.88855469 8.12070312 -0.92773438 7.41015625 C-1.16083287 2.32166574 -1.16083287 2.32166574 0 0 Z " fill="#2A2A2A" transform="translate(30,24)"/>
<path d="M0 0 C1.77503906 0.03480469 1.77503906 0.03480469 3.5859375 0.0703125 C5.36871094 0.09738281 5.36871094 0.09738281 7.1875 0.125 C8.10273438 0.14820313 9.01796875 0.17140625 9.9609375 0.1953125 C9.9609375 0.5253125 9.9609375 0.8553125 9.9609375 1.1953125 C6.0009375 1.1953125 2.0409375 1.1953125 -2.0390625 1.1953125 C-1.7090625 1.8553125 -1.3790625 2.5153125 -1.0390625 3.1953125 C1.44732299 3.6431527 1.44732299 3.6431527 4.6484375 3.7578125 C5.27113525 3.79318115 5.89383301 3.8285498 6.53540039 3.86499023 C18.99838907 4.51822866 31.4871937 4.81886084 43.9609375 5.1953125 C43.9609375 4.2053125 43.9609375 3.2153125 43.9609375 2.1953125 C42.9709375 1.8653125 41.9809375 1.5353125 40.9609375 1.1953125 C42.8359375 0.5703125 42.8359375 0.5703125 44.9609375 0.1953125 C45.6209375 0.8553125 46.2809375 1.5153125 46.9609375 2.1953125 C46.5859375 4.8203125 46.5859375 4.8203125 45.9609375 7.1953125 C41.60463299 8.26946978 37.35787149 8.34816842 32.8984375 8.3203125 C31.76571411 8.31741211 31.76571411 8.31741211 30.61010742 8.31445312 C25.3547624 8.27424647 20.18142532 7.9487849 14.953125 7.3984375 C10.26176442 7.07996394 5.5851537 7.37651736 0.89453125 7.6484375 C-2.0390625 7.1953125 -2.0390625 7.1953125 -3.94140625 4.6796875 C-4.30363281 3.85984375 -4.66585938 3.04 -5.0390625 2.1953125 C-3.0390625 0.1953125 -3.0390625 0.1953125 0 0 Z " fill="#55656B" transform="translate(23.0390625,138.8046875)"/>
<path d="M0 0 C0.66 0 1.32 0 2 0 C2.36279456 1.28926992 2.71496698 2.58153272 3.0625 3.875 C3.25972656 4.59429687 3.45695313 5.31359375 3.66015625 6.0546875 C4 8 4 8 3 10 C4.2065625 10.1546875 4.2065625 10.1546875 5.4375 10.3125 C9.78247386 11.15100373 13.83457527 12.52821659 18 14 C18 16.31 18 18.62 18 21 C17.34 21.33 16.68 21.66 16 22 C14.948125 21.649375 13.89625 21.29875 12.8125 20.9375 C8.30440095 19.82895105 6.3822492 20.66304262 2 22 C-1.3409872 22.1763571 -4.65759504 22.1210529 -8 22 C-9.125 18.25 -9.125 18.25 -8 16 C-7.34 16.33 -6.68 16.66 -6 17 C-6.33 18.32 -6.66 19.64 -7 21 C-5.68 21 -4.36 21 -3 21 C-3 20.34 -3 19.68 -3 19 C3.97579243 17.2041045 9.88221482 16.87932744 17 18 C17 17.01 17 16.02 17 15 C16.319375 15.061875 15.63875 15.12375 14.9375 15.1875 C11.17977516 14.94764522 8.4479736 13.48619552 5 12 C3.824375 11.835 2.64875 11.67 1.4375 11.5 C-2.23629497 10.96562982 -4.78146232 9.80552114 -8 8 C-4.98968256 7.06576355 -4.13349732 6.95550089 -1 8 C-0.67 5.36 -0.34 2.72 0 0 Z " fill="#5C91C5" transform="translate(10,46)"/>
<path d="M0 0 C0 3 0 3 -1.1171875 4.671875 C-3.84464817 6.59580991 -5.80088176 6.32572023 -9.125 6.25 C-10.43855469 6.22421875 -11.75210938 6.1984375 -13.10546875 6.171875 C-14.73707974 6.11752281 -16.36858211 6.05986855 -18 6 C-19.03979004 5.96326172 -20.07958008 5.92652344 -21.15087891 5.88867188 C-28.43538912 5.625036 -35.71798384 5.32498968 -43 5 C-43 4.01 -43 3.02 -43 2 C-41.91058105 1.97494385 -40.82116211 1.9498877 -39.69873047 1.92407227 C-35.63953802 1.82958085 -31.58050012 1.72946363 -27.52148438 1.62768555 C-25.76794054 1.58449402 -24.01435892 1.54280845 -22.26074219 1.50268555 C-19.73360835 1.44459876 -17.20666196 1.38101701 -14.6796875 1.31640625 C-13.90132538 1.29969376 -13.12296326 1.28298126 -12.3210144 1.26576233 C-8.12448711 1.1527014 -4.13461263 0.80794586 0 0 Z " fill="#919192" transform="translate(60,104)"/>
<path d="M0 0 C1.95825873 -0.02694851 3.91662226 -0.04637218 5.875 -0.0625 C6.96554688 -0.07410156 8.05609375 -0.08570312 9.1796875 -0.09765625 C12 0 12 0 14 1 C14 1.66 14 2.32 14 3 C10.17010894 4.80230168 7.21878192 5.19622241 3 5 C3 5.66 3 6.32 3 7 C6.63 7 10.26 7 14 7 C14 8.32 14 9.64 14 11 C9.05 11 4.1 11 -1 11 C-1.125 2.25 -1.125 2.25 0 0 Z " fill="#2384F1" transform="translate(4,83)"/>
<path d="M0 0 C0.66 1.98 1.32 3.96 2 6 C-1.5486135 8.36574234 -2.5764525 8.10865265 -6.6875 7.625 C-8.17830078 7.45871094 -8.17830078 7.45871094 -9.69921875 7.2890625 C-10.45847656 7.19367188 -11.21773437 7.09828125 -12 7 C-12 6.34 -12 5.68 -12 5 C-12.66 5 -13.32 5 -14 5 C-14 5.66 -14 6.32 -14 7 C-14.99 7.33 -15.98 7.66 -17 8 C-17.33 6.02 -17.66 4.04 -18 2 C-11.7629069 -1.46505172 -6.95253862 -1.04350941 0 0 Z " fill="#167CED" transform="translate(20,73)"/>
<path d="M0 0 C0.33 0 0.66 0 1 0 C1 6.27 1 12.54 1 19 C-1.31 19.33 -3.62 19.66 -6 20 C-9.43467634 16.41598991 -9.8768268 12.78480493 -10 8 C-9.5625 5 -9.5625 5 -9 3 C-8.67 3 -8.34 3 -8 3 C-8 5.64 -8 8.28 -8 11 C-6.68 11.33 -5.36 11.66 -4 12 C-3.67 10.02 -3.34 8.04 -3 6 C-2.34 6 -1.68 6 -1 6 C-1.66 4.68 -2.32 3.36 -3 2 C-2.01 2 -1.02 2 0 2 C0 1.34 0 0.68 0 0 Z " fill="#2A292A" transform="translate(62,25)"/>
<path d="M0 0 C1.2065625 0.0309375 1.2065625 0.0309375 2.4375 0.0625 C2.77442785 1.66591555 3.10691093 3.27026555 3.4375 4.875 C3.623125 5.76832031 3.80875 6.66164063 4 7.58203125 C4.4375 10.0625 4.4375 10.0625 4.4375 13.0625 C5.7575 12.7325 7.0775 12.4025 8.4375 12.0625 C8.4375 12.7225 8.4375 13.3825 8.4375 14.0625 C6.7875 14.3925 5.1375 14.7225 3.4375 15.0625 C3.1075 16.7125 2.7775 18.3625 2.4375 20.0625 C2.1075 20.0625 1.7775 20.0625 1.4375 20.0625 C1.1075 16.7625 0.7775 13.4625 0.4375 10.0625 C0.1075 15.3425 -0.2225 20.6225 -0.5625 26.0625 C-0.8925 26.0625 -1.2225 26.0625 -1.5625 26.0625 C-1.5625 21.7725 -1.5625 17.4825 -1.5625 13.0625 C-2.5525 12.7325 -3.5425 12.4025 -4.5625 12.0625 C-4.42212479 10.24956911 -4.27505111 8.4371557 -4.125 6.625 C-4.04378906 5.61566406 -3.96257812 4.60632812 -3.87890625 3.56640625 C-3.45167428 0.1854718 -3.42707105 0.0835871 0 0 Z " fill="#677880" transform="translate(128.5625,40.9375)"/>
<path d="M0 0 C0.33 0 0.66 0 1 0 C1.66 3.96 2.32 7.92 3 12 C3.33 12 3.66 12 4 12 C4 21.57 4 31.14 4 41 C2.68 41 1.36 41 0 41 C0 27.47 0 13.94 0 0 Z " fill="#536B75" transform="translate(128,43)"/>
<path d="M0 0 C0.33 0 0.66 0 1 0 C1.33 5.94 1.66 11.88 2 18 C6.95 18 11.9 18 17 18 C17 16.35 17 14.7 17 13 C13.37 13 9.74 13 6 13 C6 12.34 6 11.68 6 11 C10.29 11 14.58 11 19 11 C18.67 9.02 18.34 7.04 18 5 C18.66 5.33 19.32 5.66 20 6 C20.02685938 8.14576637 20.04633088 10.29162645 20.0625 12.4375 C20.07410156 13.63246094 20.08570312 14.82742187 20.09765625 16.05859375 C20 19 20 19 19 20 C12.78949926 21.12918195 7.23793232 20.83087213 1 20 C-0.9126443 15.25489009 -1.10351618 11.6972715 -0.625 6.625 C-0.51414063 5.37976563 -0.40328125 4.13453125 -0.2890625 2.8515625 C-0.19367187 1.91054687 -0.09828125 0.96953125 0 0 Z " fill="#6599CA" transform="translate(1,77)"/>
<path d="M0 0 C0.33 0 0.66 0 1 0 C2.68490746 4.40174785 3.23846127 8.00772175 3.1953125 12.7109375 C3.18886719 13.95488281 3.18242188 15.19882813 3.17578125 16.48046875 C3.15902344 17.76566406 3.14226562 19.05085938 3.125 20.375 C3.11597656 21.68339844 3.10695313 22.99179688 3.09765625 24.33984375 C3.07415085 27.5600837 3.04129087 30.77994707 3 34 C2.01 34 1.02 34 0 34 C0 22.78 0 11.56 0 0 Z " fill="#5D5A59" transform="translate(64,71)"/>
<path d="M0 0 C0 0.99 0 1.98 0 3 C-1.7047397 4.7047397 -3.84504408 4.13196344 -6.11865234 4.13916016 C-6.84262207 4.1344873 -7.5665918 4.12981445 -8.3125 4.125 C-9.42939209 4.11992432 -9.42939209 4.11992432 -10.56884766 4.11474609 C-16.67480118 4.06053259 -22.77439702 3.88223086 -28.875 3.625 C-29.73649658 3.59422363 -30.59799316 3.56344727 -31.4855957 3.53173828 C-32.292146 3.49290527 -33.09869629 3.45407227 -33.9296875 3.4140625 C-34.64366699 3.3826416 -35.35764648 3.3512207 -36.09326172 3.31884766 C-38 3 -38 3 -41 1 C-27.47 0.67 -13.94 0.34 0 0 Z " fill="#687D85" transform="translate(124,144)"/>
<path d="M0 0 C0.33 0.99 0.66 1.98 1 3 C0.67 3.66 0.34 4.32 0 5 C-8.28982104 5.43630637 -15.95969329 3.77967263 -24 2 C-24 1.34 -24 0.68 -24 0 C-20.56296699 -0.19682269 -17.12536573 -0.38085152 -13.6875 -0.5625 C-12.71103516 -0.61857422 -11.73457031 -0.67464844 -10.72851562 -0.73242188 C-9.32182617 -0.80493164 -9.32182617 -0.80493164 -7.88671875 -0.87890625 C-7.02264404 -0.9260376 -6.15856934 -0.97316895 -5.26831055 -1.02172852 C-3 -1 -3 -1 0 0 Z " fill="#C7C4C7" transform="translate(122,51)"/>
<path d="M0 0 C0.99 0 1.98 0 3 0 C3 5.94 3 11.88 3 18 C3.66 18 4.32 18 5 18 C5 14.04 5 10.08 5 6 C5.33 6 5.66 6 6 6 C6.06058594 6.75925781 6.12117188 7.51851562 6.18359375 8.30078125 C6.26738281 9.29464844 6.35117187 10.28851563 6.4375 11.3125 C6.51871094 12.29863281 6.59992187 13.28476562 6.68359375 14.30078125 C6.91812559 17.09375599 6.91812559 17.09375599 8 20 C3.98843085 21.48576635 3.51869696 20.80747878 -1 19 C-0.67 12.73 -0.34 6.46 0 0 Z " fill="#484849" transform="translate(18,25)"/>
<path d="M0 0 C0.99 0 1.98 0 3 0 C3 9.24 3 18.48 3 28 C2.01 27.67 1.02 27.34 0 27 C0 18.09 0 9.18 0 0 Z " fill="#636160" transform="translate(64,110)"/>
<path d="M0 0 C0.99 0.66 1.98 1.32 3 2 C2.83628906 2.95003906 2.67257813 3.90007813 2.50390625 4.87890625 C1.83441707 9.56533049 1.89079078 14.21268306 1.9375 18.9375 C1.94201172 19.81212891 1.94652344 20.68675781 1.95117188 21.58789062 C1.96285166 23.72529047 1.98078311 25.86265463 2 28 C1.34 27.67 0.68 27.34 0 27 C-1.51424068 21.6702713 -1.41352777 15.99554422 -1.71875 10.49609375 C-1.88351135 7.16055575 -1.88351135 7.16055575 -2.62109375 4.64453125 C-2.74613281 4.10183594 -2.87117188 3.55914062 -3 3 C-1.5625 1.25 -1.5625 1.25 0 0 Z " fill="#A8ABAF" transform="translate(65,49)"/>
<path d="M0 0 C1.65 0 3.3 0 5 0 C5.11547323 8.07029553 4.90041311 15.97667603 4 24 C2.02 24 0.04 24 -2 24 C-1.01 23.67 -0.02 23.34 1 23 C0.67 15.41 0.34 7.82 0 0 Z " fill="#777574" transform="translate(63,0)"/>
<path d="M0 0 C0.66 0.33 1.32 0.66 2 1 C2.4140625 3.72265625 2.4140625 3.72265625 2.625 7.0625 C2.69976562 8.16722656 2.77453125 9.27195312 2.8515625 10.41015625 C2.90054688 11.26480469 2.94953125 12.11945312 3 13 C6.04913228 14.01111093 6.04913228 14.01111093 9 13 C10.99960012 12.960008 13.00047242 12.95653201 15 13 C13 16 13 16 9.75 16.875 C5.42664824 17.01911173 3.49887916 16.52244777 0 14 C-2.19497587 9.705482 -2.1566261 6.6265044 -1 2 C-0.67 1.34 -0.34 0.68 0 0 Z " fill="#474849" transform="translate(107,29)"/>
<path d="M0 0 C0.66 0 1.32 0 2 0 C2.309375 1.11375 2.61875 2.2275 2.9375 3.375 C3.82326483 6.7945155 3.82326483 6.7945155 5 9 C2.20251159 9.93249614 0.45679119 10.13476152 -2.4375 10.125 C-3.58025391 10.12886719 -3.58025391 10.12886719 -4.74609375 10.1328125 C-6.95315859 10.00276015 -8.87969276 9.60856199 -11 9 C-11 8.01 -11 7.02 -11 6 C-7.7 6 -4.4 6 -1 6 C-1 4.35 -1 2.7 -1 1 C-0.67 0.67 -0.34 0.34 0 0 Z " fill="#ABB1B5" transform="translate(11,100)"/>
<path d="M0 0 C0.33 0 0.66 0 1 0 C1 1.65 1 3.3 1 5 C2.30324219 4.98259766 2.30324219 4.98259766 3.6328125 4.96484375 C4.78523438 4.95582031 5.93765625 4.94679688 7.125 4.9375 C8.26195312 4.92589844 9.39890625 4.91429687 10.5703125 4.90234375 C13.8129156 4.994673 16.81932612 5.38610094 20 6 C16.46019786 9.40295412 12.93347893 9.5325645 8.25 9.6875 C7.20392578 9.73874023 7.20392578 9.73874023 6.13671875 9.79101562 C4.42502892 9.87308295 2.7125424 9.93822919 1 10 C0.67 6.7 0.34 3.4 0 0 Z " fill="#B4B8BD" transform="translate(12,46)"/>
<path d="M0 0 C2.64 0.33 5.28 0.66 8 1 C8.33 5.29 8.66 9.58 9 14 C8.01 14.33 7.02 14.66 6 15 C6 12.69 6 10.38 6 8 C5.67 8.66 5.34 9.32 5 10 C4.34 10 3.68 10 3 10 C2.67 10.66 2.34 11.32 2 12 C2 10.68 2 9.36 2 8 C1.34 8.66 0.68 9.32 0 10 C0 8.68 0 7.36 0 6 C0.99 5.34 1.98 4.68 3 4 C2.67 3.01 2.34 2.02 2 1 C1.34 0.67 0.68 0.34 0 0 Z " fill="#444445" transform="translate(113,23)"/>
<path d="M0 0 C1.32 0.33 2.64 0.66 4 1 C4 2.65 4 4.3 4 6 C2.68 6.33 1.36 6.66 0 7 C0.33 9.97 0.66 12.94 1 16 C-1.31 16.66 -3.62 17.32 -6 18 C-6.33 17.34 -6.66 16.68 -7 16 C-5.68 16 -4.36 16 -3 16 C-3 12.37 -3 8.74 -3 5 C-1.68 4.67 -0.36 4.34 1 4 C0.67 2.68 0.34 1.36 0 0 Z " fill="#404041" transform="translate(10,28)"/>
<path d="M0 0 C5.94 0 11.88 0 18 0 C18 0.33 18 0.66 18 1 C24.93 1.495 24.93 1.495 32 2 C32 2.33 32 2.66 32 3 C21.77 3 11.54 3 1 3 C0.67 2.01 0.34 1.02 0 0 Z " fill="#284853" transform="translate(21,140)"/>
<path d="M0 0 C7.59 0 15.18 0 23 0 C20 3 20 3 17.82348633 3.34057617 C17.00130615 3.32486572 16.17912598 3.30915527 15.33203125 3.29296875 C14.43935547 3.28330078 13.54667969 3.27363281 12.62695312 3.26367188 C11.23379883 3.2259668 11.23379883 3.2259668 9.8125 3.1875 C8.87212891 3.17396484 7.93175781 3.16042969 6.96289062 3.14648438 C4.64134962 3.11113096 2.32096347 3.06178674 0 3 C0 2.01 0 1.02 0 0 Z " fill="#8E8E8F" transform="translate(17,106)"/>
<path d="M0 0 C1.9375 0.375 1.9375 0.375 4 1 C5.65497356 4.30994713 5.10084335 7.99123 5.0625 11.625 C5.05798828 12.42679688 5.05347656 13.22859375 5.04882812 14.0546875 C5.03703168 16.03649006 5.01909605 18.01825433 5 20 C3.35 20.33 1.7 20.66 0 21 C0.66 20.67 1.32 20.34 2 20 C1.85953745 17.04132082 1.71287776 14.08317736 1.5625 11.125 C1.52318359 10.28324219 1.48386719 9.44148438 1.44335938 8.57421875 C1.40146484 7.76855469 1.35957031 6.96289062 1.31640625 6.1328125 C1.26141968 5.01737061 1.26141968 5.01737061 1.20532227 3.87939453 C1.10044135 1.91135688 1.10044135 1.91135688 0 0 Z " fill="#3F3F40" transform="translate(81,25)"/>
<path d="M0 0 C1.9375 0.375 1.9375 0.375 4 1 C5.59412284 4.18824568 5.10174735 7.62896662 5.0625 11.125 C5.05798828 11.87910156 5.05347656 12.63320313 5.04882812 13.41015625 C5.03703499 15.27347127 5.01909942 17.13674555 5 19 C4.67 19 4.34 19 4 19 C3.67 14.38 3.34 9.76 3 5 C0.35859707 5 -0.84708658 5.45095254 -3 7 C-3.70535611 9.8786935 -3.70535611 9.8786935 -3.75 13.125 C-3.80671875 14.22070312 -3.8634375 15.31640625 -3.921875 16.4453125 C-3.94765625 17.28835937 -3.9734375 18.13140625 -4 19 C-4.33 19 -4.66 19 -5 19 C-5.22262606 16.91814549 -5.42757926 14.83439574 -5.625 12.75 C-5.74101563 11.58984375 -5.85703125 10.4296875 -5.9765625 9.234375 C-5.99955595 6.06127909 -5.69705154 4.61682756 -4 2 C-2.68 2 -1.36 2 0 2 C0 1.34 0 0.68 0 0 Z " fill="#212121" transform="translate(78,24)"/>
<path d="M0 0 C0.66 0.33 1.32 0.66 2 1 C1.67 2.32 1.34 3.64 1 5 C2.32 5 3.64 5 5 5 C5 4.34 5 3.68 5 3 C11.97579243 1.2041045 17.88221482 0.87932744 25 2 C25 2.33 25 2.66 25 3 C21.66666667 3.66666667 18.33333333 4.33333333 15 5 C14.175 5.185625 13.35 5.37125 12.5 5.5625 C9.84272359 6.02752337 7.38257527 6.09843434 4.6875 6.0625 C3.80449219 6.05347656 2.92148438 6.04445313 2.01171875 6.03515625 C1.34785156 6.02355469 0.68398437 6.01195313 0 6 C-1.125 2.25 -1.125 2.25 0 0 Z " fill="#3D8BDE" transform="translate(2,62)"/>
<path d="M0 0 C0 0.66 0 1.32 0 2 C-1.65 2 -3.3 2 -5 2 C-5 5.63 -5 9.26 -5 13 C-4.34 13 -3.68 13 -3 13 C-3 13.66 -3 14.32 -3 15 C-3.66 15 -4.32 15 -5 15 C-5 18.3 -5 21.6 -5 25 C-5.66 25 -6.32 25 -7 25 C-7 17.08 -7 9.16 -7 1 C-3 0 -3 0 0 0 Z " fill="#1C1C1C" transform="translate(12,18)"/>
<path d="M0 0 C1.77503906 0.03480469 1.77503906 0.03480469 3.5859375 0.0703125 C5.36871094 0.09738281 5.36871094 0.09738281 7.1875 0.125 C8.10273438 0.14820313 9.01796875 0.17140625 9.9609375 0.1953125 C9.9609375 0.5253125 9.9609375 0.8553125 9.9609375 1.1953125 C6.0009375 1.1953125 2.0409375 1.1953125 -2.0390625 1.1953125 C-1.7090625 1.8553125 -1.3790625 2.5153125 -1.0390625 3.1953125 C1.51035123 3.50772621 3.96455263 3.70834671 6.5234375 3.8203125 C7.58981445 3.87832031 7.58981445 3.87832031 8.67773438 3.9375 C10.43836175 4.03203033 12.19961478 4.11477067 13.9609375 4.1953125 C13.9609375 4.8553125 13.9609375 5.5153125 13.9609375 6.1953125 C6.0409375 6.6903125 6.0409375 6.6903125 -2.0390625 7.1953125 C-3.0290625 5.5453125 -4.0190625 3.8953125 -5.0390625 2.1953125 C-3.0390625 0.1953125 -3.0390625 0.1953125 0 0 Z " fill="#36525C" transform="translate(23.0390625,138.8046875)"/>
<path d="M0 0 C0.66 0.66 1.32 1.32 2 2 C1.87109375 4.1015625 1.87109375 4.1015625 1.4375 6.625 C0.75377457 11.97048974 1.75500083 15.1508018 4 20 C3.01 20 2.02 20 1 20 C-2.02709155 16.97290845 -2.76125262 14.21787041 -3 10 C-1.75342466 1.75342466 -1.75342466 1.75342466 0 0 Z " fill="#3D3D3E" transform="translate(52,25)"/>
<path d="M0 0 C0.99386719 0.10183594 1.98773438 0.20367187 3.01171875 0.30859375 C3.77097656 0.39238281 4.53023437 0.47617188 5.3125 0.5625 C5.9725 2.5425 6.6325 4.5225 7.3125 6.5625 C6.3225 7.2225 5.3325 7.8825 4.3125 8.5625 C3.3225 8.2325 2.3325 7.9025 1.3125 7.5625 C1.9725 7.5625 2.6325 7.5625 3.3125 7.5625 C3.6425 5.9125 3.9725 4.2625 4.3125 2.5625 C-4.1025 3.0575 -4.1025 3.0575 -12.6875 3.5625 C-7.83346647 -0.07802515 -5.81668223 -0.615884 0 0 Z " fill="#4E92D7" transform="translate(14.6875,72.4375)"/>
<path d="M0 0 C0.86625 0.12375 1.7325 0.2475 2.625 0.375 C4.4375 2.875 4.4375 2.875 5.625 5.375 C4.635 6.365 3.645 7.355 2.625 8.375 C0.645 7.715 -1.335 7.055 -3.375 6.375 C-3.417721 4.70888095 -3.41563832 3.04117115 -3.375 1.375 C-2.375 0.375 -2.375 0.375 0 0 Z " fill="#454647" transform="translate(21.375,15.625)"/>
<path d="M0 0 C4.875 0.875 4.875 0.875 6 2 C7.51165654 2.39148761 9.03469632 2.73972457 10.5625 3.0625 C11.38878906 3.23910156 12.21507812 3.41570313 13.06640625 3.59765625 C13.70449219 3.73042969 14.34257812 3.86320312 15 4 C11.8035914 5.06546953 9.34252724 5.07427838 6 5 C6 5.99 6 6.98 6 8 C3.03824877 7.38722388 1.61941217 6.74627478 -1 5 C-0.67 3.35 -0.34 1.7 0 0 Z " fill="#2E86E5" transform="translate(2,54)"/>
<path d="M0 0 C0.33 0 0.66 0 1 0 C1 3 1 6 1 9 C1.99 10.485 1.99 10.485 3 12 C-0.3 11.67 -3.6 11.34 -7 11 C-7.33 9.68 -7.66 8.36 -8 7 C-6.68 7 -5.36 7 -4 7 C-3.67 5.68 -3.34 4.36 -3 3 C-2.34 3 -1.68 3 -1 3 C-0.67 2.01 -0.34 1.02 0 0 Z " fill="#363738" transform="translate(119,30)"/>
<path d="M0 0 C0.33 0 0.66 0 1 0 C1.74016701 5.70985978 2.10469338 11.24186425 2 17 C0.35 17.66 -1.3 18.32 -3 19 C-3.66 18.34 -4.32 17.68 -5 17 C-4.01 16.67 -3.02 16.34 -2 16 C-1.93941406 15.01257812 -1.87882812 14.02515625 -1.81640625 13.0078125 C-1.73261719 11.72648437 -1.64882813 10.44515625 -1.5625 9.125 C-1.48128906 7.84882812 -1.40007813 6.57265625 -1.31640625 5.2578125 C-1 2 -1 2 0 0 Z " fill="#595B5D" transform="translate(45,27)"/>
<path d="M0 0 C4.62 0 9.24 0 14 0 C14 1.32 14 2.64 14 4 C9.71 4 5.42 4 1 4 C1.33 3.34 1.66 2.68 2 2 C1.34 1.34 0.68 0.68 0 0 Z " fill="#C9C8CD" transform="translate(27,51)"/>
<path d="M0 0 C0.33 0.99 0.66 1.98 1 3 C0.67 3.33 0.34 3.66 0 4 C-0.14636054 7.36629251 -0.07193479 9.78419562 1 13 C2.98 13 4.96 13 7 13 C7 13.66 7 14.32 7 15 C6.34 15 5.68 15 5 15 C5 15.66 5 16.32 5 17 C1.71743174 16.43403996 0.03947365 15.66168595 -2 13 C-2.36328125 10.37109375 -2.36328125 10.37109375 -2.3125 7.4375 C-2.30863281 6.46683594 -2.30476563 5.49617188 -2.30078125 4.49609375 C-2 2 -2 2 0 0 Z " fill="#242425" transform="translate(95,27)"/>
<path d="M0 0 C0.66 0.66 1.32 1.32 2 2 C0.68 2 -0.64 2 -2 2 C-1.88648483 3.81325551 -1.75887039 5.62563357 -1.625 7.4375 C-1.55539062 8.44683594 -1.48578125 9.45617187 -1.4140625 10.49609375 C-1.27742187 11.32238281 -1.14078125 12.14867187 -1 13 C-0.34 13.33 0.32 13.66 1 14 C-0.32 14 -1.64 14 -3 14 C-3 13.34 -3 12.68 -3 12 C-3.66 12 -4.32 12 -5 12 C-5 8.37 -5 4.74 -5 1 C-3.35 0.67 -1.7 0.34 0 0 Z " fill="#2F2E2F" transform="translate(12,19)"/>
<path d="M0 0 C1.95825873 -0.02694851 3.91662226 -0.04637218 5.875 -0.0625 C6.96554688 -0.07410156 8.05609375 -0.08570312 9.1796875 -0.09765625 C12 0 12 0 14 1 C14 1.66 14 2.32 14 3 C13.08476562 3.06058594 12.16953125 3.12117188 11.2265625 3.18359375 C10.03804687 3.26738281 8.84953125 3.35117188 7.625 3.4375 C6.44164062 3.51871094 5.25828125 3.59992188 4.0390625 3.68359375 C1.08481099 3.81084936 1.08481099 3.81084936 -1 5 C-0.67 3.35 -0.34 1.7 0 0 Z " fill="#0C78F0" transform="translate(4,83)"/>
<path d="M0 0 C7.36259293 -0.22424141 13.87049629 0.09879901 21 2 C21 2.33 21 2.66 21 3 C13.74 3 6.48 3 -1 3 C-0.67 2.01 -0.34 1.02 0 0 Z " fill="#6F7476" transform="translate(1,160)"/>
<path d="M0 0 C0 1.32 0 2.64 0 4 C-1.97986082 3.88652381 -3.95891598 3.7589065 -5.9375 3.625 C-7.03964844 3.55539063 -8.14179687 3.48578125 -9.27734375 3.4140625 C-10.17582031 3.27742188 -11.07429688 3.14078125 -12 3 C-12.33 2.34 -12.66 1.68 -13 1 C-11.58622218 0.63447197 -10.16879424 0.28304505 -8.75 -0.0625 C-7.96109375 -0.25972656 -7.1721875 -0.45695312 -6.359375 -0.66015625 C-3.89605178 -1.01497267 -2.34395868 -0.76877544 0 0 Z " fill="#5A5A5A" transform="translate(122,106)"/>
<path d="M0 0 C0.061875 0.928125 0.061875 0.928125 0.125 1.875 C0.41375 2.57625 0.7025 3.2775 1 4 C3.99615946 5.3045656 3.99615946 5.3045656 7 6 C7 5.34 7 4.68 7 4 C7.66 4 8.32 4 9 4 C9.33 3.34 9.66 2.68 10 2 C10.33 2.66 10.66 3.32 11 4 C10.01 5.485 10.01 5.485 9 7 C6.94140625 7.3984375 6.94140625 7.3984375 4.5625 7.375 C3.78003906 7.38273437 2.99757813 7.39046875 2.19140625 7.3984375 C-0.50126312 6.90886125 -1.35026553 6.14919537 -3 4 C-3.33 3.01 -3.66 2.02 -4 1 C-2 0 -2 0 0 0 Z " fill="#404243" transform="translate(93,38)"/>
<path d="M0 0 C4.95 0 9.9 0 15 0 C14 2 14 2 12.109375 2.6328125 C8.02124399 3.48563453 4.20385856 4.27121668 0 4 C0 2.68 0 1.36 0 0 Z " fill="#8E8C89" transform="translate(70,106)"/>
<path d="M0 0 C0.99 0.33 1.98 0.66 3 1 C3.33 4.3 3.66 7.6 4 11 C5.32 10.67 6.64 10.34 8 10 C8 10.66 8 11.32 8 12 C6.35 12.33 4.7 12.66 3 13 C2.67 14.65 2.34 16.3 2 18 C1.67 18 1.34 18 1 18 C0.67 12.06 0.34 6.12 0 0 Z " fill="#6F8189" transform="translate(129,43)"/>
<path d="M0 0 C0.33 0 0.66 0 1 0 C1 5.94 1 11.88 1 18 C-0.65 17.67 -2.3 17.34 -4 17 C-3.34 16.34 -2.68 15.68 -2 15 C-1.71853096 12.39952066 -1.71853096 12.39952066 -1.8125 9.5 C-1.82216797 8.03046875 -1.82216797 8.03046875 -1.83203125 6.53125 C-1.83559274 4.00630616 -1.83559274 4.00630616 -3 2 C-2.01 2 -1.02 2 0 2 C0 1.34 0 0.68 0 0 Z " fill="#1C1B1C" transform="translate(62,25)"/>
<path d="M0 0 C0.99 0 1.98 0 3 0 C3 0.66 3 1.32 3 2 C4.11375 1.95875 5.2275 1.9175 6.375 1.875 C10 2 10 2 12 4 C5.6496923 5.41117949 0.30338787 4.3792223 -6 3 C-6 2.67 -6 2.34 -6 2 C-4.02 2 -2.04 2 0 2 C0 1.34 0 0.68 0 0 Z " fill="#D5CFD2" transform="translate(95,51)"/>
<path d="M0 0 C1.47668858 0.0133035 2.95331108 0.03716415 4.4296875 0.0703125 C5.18378906 0.07933594 5.93789063 0.08835938 6.71484375 0.09765625 C8.57826004 0.1212438 10.44151343 0.15711531 12.3046875 0.1953125 C11.9746875 1.1853125 11.6446875 2.1753125 11.3046875 3.1953125 C5.6946875 2.8653125 0.0846875 2.5353125 -5.6953125 2.1953125 C-3.6953125 0.1953125 -3.6953125 0.1953125 0 0 Z " fill="#617076" transform="translate(40.6953125,143.8046875)"/>
<path d="M0 0 C0.33 0 0.66 0 1 0 C1 5.66666667 1 11.33333333 1 17 C0.01 17 -0.98 17 -2 17 C-3.20272819 14.59454362 -3.10071472 13.05003047 -3.0625 10.375 C-3.05347656 9.55773437 -3.04445313 8.74046875 -3.03515625 7.8984375 C-3.02355469 7.27195313 -3.01195312 6.64546875 -3 6 C-2.67 6 -2.34 6 -2 6 C-1.67 7.65 -1.34 9.3 -1 11 C-0.67 7.37 -0.34 3.74 0 0 Z " fill="#798991" transform="translate(14,126)"/>
<path d="M0 0 C0.99 0 1.98 0 3 0 C3 4.62 3 9.24 3 14 C2.34 13.67 1.68 13.34 1 13 C-0.29930238 8.71230214 -0.07516774 4.43489655 0 0 Z " fill="#83878C" transform="translate(64,63)"/>
<path d="M0 0 C0.99 0.66 1.98 1.32 3 2 C2.67 2.33 2.34 2.66 2 3 C1.76472227 5.34987262 1.58613583 7.70556039 1.4375 10.0625 C1.35371094 11.35285156 1.26992188 12.64320312 1.18359375 13.97265625 C1.12300781 14.97167969 1.06242187 15.97070312 1 17 C0.34 16.67 -0.32 16.34 -1 16 C-2.44272298 10.2291081 -1.55690525 5.67434063 0 0 Z " fill="#222122" transform="translate(33,26)"/>
<path d="M0 0 C1.30062431 3.81516464 0.89369853 7.27561763 0.5625 11.25 C0.46066406 12.51328125 0.35882813 13.7765625 0.25390625 15.078125 C0.17011719 16.04234375 0.08632813 17.0065625 0 18 C-0.33 18 -0.66 18 -1 18 C-1 12.72 -1 7.44 -1 2 C-3.64 1.67 -6.28 1.34 -9 1 C-5.64919071 -1.10976881 -3.77897651 -1.0497157 0 0 Z " fill="#363637" transform="translate(44,25)"/>
<path d="M0 0 C0.33 0.99 0.66 1.98 1 3 C2.65 2.67 4.3 2.34 6 2 C6.33 2.66 6.66 3.32 7 4 C1.39 4 -4.22 4 -10 4 C-6.09987886 1.07490914 -4.61691161 0.52464905 0 0 Z " fill="#7C7877" transform="translate(91,105)"/>
<path d="M0 0 C0.33 0 0.66 0 1 0 C3.81573751 5.96273825 2.75822476 11.6677986 2 18 C0 16 0 16 -0.1953125 12.3046875 C-0.182009 10.82799892 -0.15814835 9.35137642 -0.125 7.875 C-0.11146484 6.74384766 -0.11146484 6.74384766 -0.09765625 5.58984375 C-0.0740687 3.72642746 -0.03819719 1.86317407 0 0 Z " fill="#716E6D" transform="translate(64,71)"/>
<path d="M0 0 C0.33 0.99 0.66 1.98 1 3 C0.67 3.66 0.34 4.32 0 5 C-2.31 4.67 -4.62 4.34 -7 4 C-7 3.01 -7 2.02 -7 1 C-3.375 -1.125 -3.375 -1.125 0 0 Z " fill="#AAAFB3" transform="translate(122,51)"/>
<path d="M0 0 C0.66 0 1.32 0 2 0 C2 3.96 2 7.92 2 12 C1.01 12.495 1.01 12.495 0 13 C-1.49084832 8.52745503 -1.49084832 4.47254497 0 0 Z " fill="#2E505B" transform="translate(128,95)"/>
<path d="M0 0 C4.95 0.33 9.9 0.66 15 1 C15 1.66 15 2.32 15 3 C10.05 3 5.1 3 0 3 C0 2.01 0 1.02 0 0 Z " fill="#0772ED" transform="translate(3,91)"/>
<path d="M0 0 C1.32 0.33 2.64 0.66 4 1 C3.01 1.495 3.01 1.495 2 2 C2.33 3.65 2.66 5.3 3 7 C4.65 6.67 6.3 6.34 8 6 C8.33 6.66 8.66 7.32 9 8 C7.35 8.66 5.7 9.32 4 10 C2 8.375 2 8.375 0 6 C-0.25 2.75 -0.25 2.75 0 0 Z " fill="#232223" transform="translate(109,34)"/>
<path d="M0 0 C0.99 0.495 0.99 0.495 2 1 C2 1.33 2 1.66 2 2 C3.65 2 5.3 2 7 2 C6.01 2.495 6.01 2.495 5 3 C5 4.98 5 6.96 5 9 C3.35 8.67 1.7 8.34 0 8 C0 5.36 0 2.72 0 0 Z " fill="#333334" transform="translate(54,28)"/>
<path d="M0 0 C2.875 -0.125 2.875 -0.125 6 0 C8 2 8 2 8 5 C6.68 5 5.36 5 4 5 C3.67 4.67 3.34 4.34 3 4 C2.34 4.66 1.68 5.32 1 6 C0.67 4.02 0.34 2.04 0 0 Z " fill="#323232" transform="translate(95,24)"/>
<path d="M0 0 C5.94 0 11.88 0 18 0 C17.67 0.66 17.34 1.32 17 2 C16.35933594 1.98839844 15.71867187 1.97679688 15.05859375 1.96484375 C9.91346778 1.91116881 5.06975076 2.11830422 0 3 C0 2.01 0 1.02 0 0 Z " fill="#9F9FA0" transform="translate(17,106)"/>
<path d="M0 0 C0.66 0 1.32 0 2 0 C1.67 1.65 1.34 3.3 1 5 C0.34 5 -0.32 5 -1 5 C-1 5.66 -1 6.32 -1 7 C-2.32 7 -3.64 7 -5 7 C-4.67 5.35 -4.34 3.7 -4 2 C-2.68 2 -1.36 2 0 2 C0 1.34 0 0.68 0 0 Z " fill="#137BEE" transform="translate(8,60)"/>
<path d="M0 0 C3 0 3 0 4.6875 1.5 C5.120625 1.995 5.55375 2.49 6 3 C6.33 2.01 6.66 1.02 7 0 C7.33 1.65 7.66 3.3 8 5 C5.6875 5.625 5.6875 5.625 3 6 C2.01 5.34 1.02 4.68 0 4 C0 2.68 0 1.36 0 0 Z " fill="#4C4D4F" transform="translate(29,40)"/>
<path d="M0 0 C1.77503906 0.03480469 1.77503906 0.03480469 3.5859375 0.0703125 C5.36871094 0.09738281 5.36871094 0.09738281 7.1875 0.125 C8.10273438 0.14820313 9.01796875 0.17140625 9.9609375 0.1953125 C9.9609375 0.5253125 9.9609375 0.8553125 9.9609375 1.1953125 C6.0009375 1.1953125 2.0409375 1.1953125 -2.0390625 1.1953125 C-1.3790625 2.8453125 -0.7190625 4.4953125 -0.0390625 6.1953125 C-1.0290625 6.1953125 -2.0190625 6.1953125 -3.0390625 6.1953125 C-3.6990625 4.8753125 -4.3590625 3.5553125 -5.0390625 2.1953125 C-3.0390625 0.1953125 -3.0390625 0.1953125 0 0 Z " fill="#646E74" transform="translate(23.0390625,138.8046875)"/>
<path d="M0 0 C0.33 0 0.66 0 1 0 C1.33 4.29 1.66 8.58 2 13 C1.01 13 0.02 13 -1 13 C-1.02686553 11.02090602 -1.04633375 9.04171029 -1.0625 7.0625 C-1.07410156 5.96035156 -1.08570312 4.85820313 -1.09765625 3.72265625 C-1 1 -1 1 0 0 Z " fill="#4B585D" transform="translate(126,94)"/>
<path d="M0 0 C4.455 0.99 4.455 0.99 9 2 C9 2.99 9 3.98 9 5 C5.625 4.75 5.625 4.75 2 4 C1.34 2.68 0.68 1.36 0 0 Z " fill="#137BF0" transform="translate(18,59)"/>
<path d="M0 0 C3.06188727 4.08251636 3.37243503 4.56497929 3.1875 9.25 C3.16042969 10.14203125 3.13335937 11.0340625 3.10546875 11.953125 C3.07066406 12.62859375 3.03585938 13.3040625 3 14 C2.01 14.495 2.01 14.495 1 15 C0.67 10.05 0.34 5.1 0 0 Z " fill="#3A3A3B" transform="translate(29,26)"/>
<path d="M0 0 C0 0.99 0 1.98 0 3 C-3.69541586 3.95024979 -6.30458414 3.95024979 -10 3 C-7.91319844 -1.17360313 -4.16612379 -0.07715044 0 0 Z " fill="#B1B9C1" transform="translate(47,106)"/>
<path d="M0 0 C0.33 0 0.66 0 1 0 C1 1.65 1 3.3 1 5 C2.65 5 4.3 5 6 5 C6 5.99 6 6.98 6 8 C4.35 8.66 2.7 9.32 1 10 C0.67 6.7 0.34 3.4 0 0 Z " fill="#95A3B0" transform="translate(12,46)"/>
<path d="M0 0 C0.99 0.33 1.98 0.66 3 1 C3 3.31 3 5.62 3 8 C1.02 8 -0.96 8 -3 8 C-2.01 7.67 -1.02 7.34 0 7 C0 4.69 0 2.38 0 0 Z " fill="#636161" transform="translate(64,16)"/>
<path d="M0 0 C3.96 0 7.92 0 12 0 C9 3 9 3 6.73828125 3.07421875 C5.93777344 2.94660156 5.13726562 2.81898438 4.3125 2.6875 C3.10013672 2.50767578 3.10013672 2.50767578 1.86328125 2.32421875 C1.24839844 2.21722656 0.63351563 2.11023438 0 2 C0 1.34 0 0.68 0 0 Z " fill="#4A6168" transform="translate(53,144)"/>
<path d="M0 0 C1.65 0 3.3 0 5 0 C4.67 2.64 4.34 5.28 4 8 C1.10067643 5.60490662 0.49831724 3.68754757 0 0 Z " fill="#6C6D6D" transform="translate(63,0)"/>
<path d="M0 0 C2.64 0.33 5.28 0.66 8 1 C7.34 2.65 6.68 4.3 6 6 C5.01 5.67 4.02 5.34 3 5 C2.6278958 3.67696283 2.29369827 2.34262065 2 1 C1.34 0.67 0.68 0.34 0 0 Z " fill="#545556" transform="translate(113,23)"/>
<path d="M0 0 C0 0.99 0 1.98 0 3 C-1 4 -1 4 -3.875 4.25 C-7 4 -7 4 -10 1 C-6.7 0.67 -3.4 0.34 0 0 Z " fill="#63767E" transform="translate(124,144)"/>
<path d="M0 0 C0.33 0 0.66 0 1 0 C1 3.63 1 7.26 1 11 C-0.65 11.33 -2.3 11.66 -4 12 C-3.34 11.67 -2.68 11.34 -2 11 C-1.30906104 8.42048126 -1.30906104 8.42048126 -0.875 5.4375 C-0.70742187 4.42558594 -0.53984375 3.41367187 -0.3671875 2.37109375 C-0.24601562 1.58863281 -0.12484375 0.80617187 0 0 Z " fill="#58595B" transform="translate(85,34)"/>
<path d="M0 0 C1.36511719 0.29197266 1.36511719 0.29197266 2.7578125 0.58984375 C3.45648438 0.74582031 4.15515625 0.90179688 4.875 1.0625 C4.875 1.3925 4.875 1.7225 4.875 2.0625 C0.915 2.0625 -3.045 2.0625 -7.125 2.0625 C-7.125 1.4025 -7.125 0.7425 -7.125 0.0625 C-4.4030754 -1.2984623 -2.9418043 -0.64116248 0 0 Z " fill="#696D70" transform="translate(17.125,160.9375)"/>
<path d="M0 0 C0.33 2.31 0.66 4.62 1 7 C0.01 6.67 -0.98 6.34 -2 6 C-3.1875 3.4375 -3.1875 3.4375 -4 1 C-2 0 -2 0 0 0 Z " fill="#5E5E60" transform="translate(93,38)"/>
<path d="M0 0 C0 3 0 3 -1.5 4.6875 C-1.995 5.120625 -2.49 5.55375 -3 6 C-4.5 4.625 -4.5 4.625 -6 3 C-6 2.34 -6 1.68 -6 1 C-4.02 0.67 -2.04 0.34 0 0 Z " fill="#B1B3B2" transform="translate(60,104)"/>
<path d="M0 0 C0.99 0 1.98 0 3 0 C3 1.98 3 3.96 3 6 C1.35 6 -0.3 6 -2 6 C-1.34 5.67 -0.68 5.34 0 5 C0 3.35 0 1.7 0 0 Z " fill="#4F96DD" transform="translate(18,90)"/>
<path d="M0 0 C0.99 0.33 1.98 0.66 3 1 C1.35 2.65 -0.3 4.3 -2 6 C-2.66 5.67 -3.32 5.34 -4 5 C-2.25 1.125 -2.25 1.125 0 0 Z " fill="#3C3C3D" transform="translate(111,24)"/>
<path d="M0 0 C0.33 0.99 0.66 1.98 1 3 C-2.75 5 -2.75 5 -5 5 C-5 4.01 -5 3.02 -5 2 C-3.35 1.34 -1.7 0.68 0 0 Z " fill="#6E818A" transform="translate(16,108)"/>
<path d="M0 0 C0.99 0 1.98 0 3 0 C3 1.98 3 3.96 3 6 C2.01 6.33 1.02 6.66 0 7 C0 4.69 0 2.38 0 0 Z " fill="#585656" transform="translate(64,110)"/>
<path d="M0 0 C1.32 0.33 2.64 0.66 4 1 C4 2.32 4 3.64 4 5 C2.68 5 1.36 5 0 5 C0 3.35 0 1.7 0 0 Z " fill="#6B6E70" transform="translate(118,105)"/>
<path d="M0 0 C0.33 0 0.66 0 1 0 C1.04898438 0.68707031 1.09796875 1.37414063 1.1484375 2.08203125 C1.22320312 2.98308594 1.29796875 3.88414063 1.375 4.8125 C1.44460937 5.70582031 1.51421875 6.59914063 1.5859375 7.51953125 C1.86645036 10.24398499 1.86645036 10.24398499 4 13 C2.68 13 1.36 13 0 13 C0 8.71 0 4.42 0 0 Z " fill="#38393A" transform="translate(39,31)"/>
<path d="M0 0 C0.268125 0.639375 0.53625 1.27875 0.8125 1.9375 C1.88667752 4.33131686 1.88667752 4.33131686 5 5 C4.67 5.99 4.34 6.98 4 8 C2.68 7.67 1.36 7.34 0 7 C0 4.69 0 2.38 0 0 Z " fill="#5C6D73" transform="translate(126,135)"/>
<path d="M0 0 C0.99 0.33 1.98 0.66 3 1 C3 2.32 3 3.64 3 5 C3.66 5.33 4.32 5.66 5 6 C3.35 5.67 1.7 5.34 0 5 C0 3.35 0 1.7 0 0 Z " fill="#373738" transform="translate(2,38)"/>
<path d="M0 0 C3.37462715 0.54723683 5.08235 1.0549 8 3 C5.36 3 2.72 3 0 3 C0 2.01 0 1.02 0 0 Z " fill="#91908E" transform="translate(0,106)"/>
<path d="M0 0 C0.99 0 1.98 0 3 0 C3.33 1.65 3.66 3.3 4 5 C1.69 5 -0.62 5 -3 5 C-2.34 4.34 -1.68 3.68 -1 3 C-0.01 3 0.98 3 2 3 C2 2.34 2 1.68 2 1 C1.34 0.67 0.68 0.34 0 0 Z " fill="#348CEB" transform="translate(16,83)"/>
<path d="M0 0 C0.7425 0.0825 1.485 0.165 2.25 0.25 C1.26 1.735 1.26 1.735 0.25 3.25 C-3.375 3.9375 -3.375 3.9375 -6.75 4.25 C-3.42692308 0.31153846 -3.42692308 0.31153846 0 0 Z " fill="#74787A" transform="translate(119.75,41.75)"/>
<path d="M0 0 C0.33 0 0.66 0 1 0 C1 1.98 1 3.96 1 6 C-0.32 6 -1.64 6 -3 6 C-3 5.01 -3 4.02 -3 3 C-2.34 3 -1.68 3 -1 3 C-0.67 2.01 -0.34 1.02 0 0 Z " fill="#292929" transform="translate(119,30)"/>
<path d="" fill="#E1E3E5" transform="translate(0,0)"/>
<path d="" fill="#E1E3E5" transform="translate(0,0)"/>
<path d="" fill="#E1E3E5" transform="translate(0,0)"/>
<path d="" fill="#E1E3E5" transform="translate(0,0)"/>
<path d="" fill="#E1E3E5" transform="translate(0,0)"/>
<path d="" fill="#E1E3E5" transform="translate(0,0)"/>
<path d="" fill="#E1E3E5" transform="translate(0,0)"/>
<path d="" fill="#E1E3E5" transform="translate(0,0)"/>
<path d="" fill="#E1E3E5" transform="translate(0,0)"/>
<path d="" fill="#E1E3E5" transform="translate(0,0)"/>
<path d="" fill="#E1E3E5" transform="translate(0,0)"/>
<path d="" fill="#E1E3E5" transform="translate(0,0)"/>
<path d="" fill="#E1E3E5" transform="translate(0,0)"/>
<path d="" fill="#E1E3E5" transform="translate(0,0)"/>
<path d="" fill="#E1E3E5" transform="translate(0,0)"/>
<path d="" fill="#E1E3E5" transform="translate(0,0)"/>
<path d="" fill="#E1E3E5" transform="translate(0,0)"/>
<path d="" fill="#E1E3E5" transform="translate(0,0)"/>
<path d="" fill="#E1E3E5" transform="translate(0,0)"/>
<path d="" fill="#E1E3E5" transform="translate(0,0)"/>
<path d="" fill="#E1E3E5" transform="translate(0,0)"/>
<path d="" fill="#E1E3E5" transform="translate(0,0)"/>
<path d="" fill="#E1E3E5" transform="translate(0,0)"/>
<path d="" fill="#E1E3E5" transform="translate(0,0)"/>
<path d="" fill="#E1E3E5" transform="translate(0,0)"/>
<path d="" fill="#E1E3E5" transform="translate(0,0)"/>
<path d="" fill="#E1E3E5" transform="translate(0,0)"/>
<path d="" fill="#E1E3E5" transform="translate(0,0)"/>
<path d="" fill="#E1E3E5" transform="translate(0,0)"/>
<path d="" fill="#E1E3E5" transform="translate(0,0)"/>
<path d="" fill="#E1E3E5" transform="translate(0,0)"/>
<path d="" fill="#E1E3E5" transform="translate(0,0)"/>
<path d="" fill="#E1E3E5" transform="translate(0,0)"/>
<path d="" fill="#E1E3E5" transform="translate(0,0)"/>
<path d="" fill="#E1E3E5" transform="translate(0,0)"/>
<path d="" fill="#E1E3E5" transform="translate(0,0)"/>
<path d="" fill="#E1E3E5" transform="translate(0,0)"/>
<path d="" fill="#E1E3E5" transform="translate(0,0)"/>
<path d="" fill="#E1E3E5" transform="translate(0,0)"/>
<path d="" fill="#E1E3E5" transform="translate(0,0)"/>
<path d="" fill="#E1E3E5" transform="translate(0,0)"/>
<path d="" fill="#E1E3E5" transform="translate(0,0)"/>
<path d="" fill="#E1E3E5" transform="translate(0,0)"/>
<path d="" fill="#E1E3E5" transform="translate(0,0)"/>
<path d="" fill="#E1E3E5" transform="translate(0,0)"/>
<path d="" fill="#E1E3E5" transform="translate(0,0)"/>
<path d="" fill="#E1E3E5" transform="translate(0,0)"/>
<path d="" fill="#E1E3E5" transform="translate(0,0)"/>
</svg>
